<mxfile host="app.diagrams.net" modified="2021-06-10T14:58:31.373Z" agent="5.0 (Windows NT 10.0; Win64; x64) AppleWebKit/537.36 (KHTML, like Gecko) Chrome/91.0.4472.77 Safari/537.36" etag="vx6n3p-Ahpb4AnTrnZAu" version="14.7.7" type="github">
  <diagram id="hACeFTANfD3MdC0z0pDQ" name="Page-1">
    <mxGraphModel dx="2523" dy="867" grid="1" gridSize="10" guides="1" tooltips="1" connect="1" arrows="1" fold="1" page="1" pageScale="1" pageWidth="850" pageHeight="1100" background="none" math="0" shadow="0">
      <root>
        <mxCell id="0" />
        <mxCell id="1" parent="0" />
        <mxCell id="4iZjYgw0V4L9F9DsTNRg-4" style="edgeStyle=orthogonalEdgeStyle;rounded=0;orthogonalLoop=1;jettySize=auto;html=1;" edge="1" parent="1" source="usE7sO5X4mrcG4s_s1Hf-3">
          <mxGeometry relative="1" as="geometry">
            <mxPoint x="-249.9411764705883" y="409.9999999999998" as="targetPoint" />
          </mxGeometry>
        </mxCell>
        <mxCell id="4iZjYgw0V4L9F9DsTNRg-23" style="edgeStyle=elbowEdgeStyle;rounded=0;orthogonalLoop=1;jettySize=auto;elbow=vertical;html=1;entryX=0.5;entryY=0;entryDx=0;entryDy=0;" edge="1" parent="1" source="usE7sO5X4mrcG4s_s1Hf-3" target="4iZjYgw0V4L9F9DsTNRg-3">
          <mxGeometry relative="1" as="geometry" />
        </mxCell>
        <mxCell id="usE7sO5X4mrcG4s_s1Hf-3" value="Client" style="rounded=1;whiteSpace=wrap;html=1;strokeWidth=3;" parent="1" vertex="1">
          <mxGeometry x="-510" y="420" width="120" height="60" as="geometry" />
        </mxCell>
        <mxCell id="usE7sO5X4mrcG4s_s1Hf-21" value="&lt;b style=&quot;font-size: 20px;&quot;&gt;MAGIX&amp;nbsp; ARCHITECTURE&lt;/b&gt;" style="text;html=1;strokeColor=none;fillColor=none;align=center;verticalAlign=middle;whiteSpace=wrap;rounded=0;fontSize=20;" parent="1" vertex="1">
          <mxGeometry x="100" y="80" width="280" height="70" as="geometry" />
        </mxCell>
        <mxCell id="4iZjYgw0V4L9F9DsTNRg-42" style="edgeStyle=elbowEdgeStyle;rounded=0;orthogonalLoop=1;jettySize=auto;elbow=vertical;html=1;fontSize=14;" edge="1" parent="1" source="usE7sO5X4mrcG4s_s1Hf-56" target="4iZjYgw0V4L9F9DsTNRg-41">
          <mxGeometry relative="1" as="geometry" />
        </mxCell>
        <mxCell id="4iZjYgw0V4L9F9DsTNRg-51" style="edgeStyle=elbowEdgeStyle;rounded=0;orthogonalLoop=1;jettySize=auto;elbow=vertical;html=1;entryX=0.5;entryY=0;entryDx=0;entryDy=0;fontSize=14;" edge="1" parent="1" source="usE7sO5X4mrcG4s_s1Hf-56" target="4iZjYgw0V4L9F9DsTNRg-49">
          <mxGeometry relative="1" as="geometry" />
        </mxCell>
        <mxCell id="4iZjYgw0V4L9F9DsTNRg-54" style="edgeStyle=elbowEdgeStyle;rounded=0;orthogonalLoop=1;jettySize=auto;elbow=vertical;html=1;fontSize=14;" edge="1" parent="1" source="usE7sO5X4mrcG4s_s1Hf-56">
          <mxGeometry relative="1" as="geometry">
            <mxPoint x="-150" y="379.9999999999998" as="targetPoint" />
          </mxGeometry>
        </mxCell>
        <mxCell id="usE7sO5X4mrcG4s_s1Hf-56" value="MAGIX Backend - API" style="swimlane;labelBackgroundColor=none;fontSize=14;fontColor=none;strokeWidth=2;startSize=20;" parent="1" vertex="1">
          <mxGeometry y="190" width="530" height="530" as="geometry" />
        </mxCell>
        <mxCell id="4iZjYgw0V4L9F9DsTNRg-47" style="edgeStyle=elbowEdgeStyle;rounded=0;orthogonalLoop=1;jettySize=auto;elbow=vertical;html=1;entryX=0.5;entryY=1;entryDx=0;entryDy=0;fontSize=14;" edge="1" parent="usE7sO5X4mrcG4s_s1Hf-56" source="usE7sO5X4mrcG4s_s1Hf-16" target="4iZjYgw0V4L9F9DsTNRg-46">
          <mxGeometry relative="1" as="geometry" />
        </mxCell>
        <mxCell id="usE7sO5X4mrcG4s_s1Hf-16" value="Core" style="rounded=1;whiteSpace=wrap;html=1;labelBorderColor=none;strokeWidth=3;" parent="usE7sO5X4mrcG4s_s1Hf-56" vertex="1">
          <mxGeometry x="190" y="430" width="120" height="60" as="geometry" />
        </mxCell>
        <mxCell id="usE7sO5X4mrcG4s_s1Hf-6" value="PHI-markup Engine" style="rounded=1;whiteSpace=wrap;html=1;strokeWidth=3;" parent="usE7sO5X4mrcG4s_s1Hf-56" vertex="1">
          <mxGeometry x="30" y="70" width="120" height="60" as="geometry" />
        </mxCell>
        <mxCell id="mglS8GP5RweYmfvnkdKe-12" value="Batch Preparation Engine" style="rounded=1;whiteSpace=wrap;html=1;strokeWidth=3;" parent="usE7sO5X4mrcG4s_s1Hf-56" vertex="1">
          <mxGeometry x="30" y="160" width="120" height="60" as="geometry" />
        </mxCell>
        <mxCell id="mglS8GP5RweYmfvnkdKe-4" value="Annotation Engine" style="rounded=1;whiteSpace=wrap;html=1;strokeWidth=3;" parent="usE7sO5X4mrcG4s_s1Hf-56" vertex="1">
          <mxGeometry x="320" y="70" width="120" height="60" as="geometry" />
        </mxCell>
        <mxCell id="mglS8GP5RweYmfvnkdKe-5" value="Audit Engine" style="rounded=1;whiteSpace=wrap;html=1;strokeWidth=3;" parent="usE7sO5X4mrcG4s_s1Hf-56" vertex="1">
          <mxGeometry x="30" y="260" width="120" height="60" as="geometry" />
        </mxCell>
        <mxCell id="mglS8GP5RweYmfvnkdKe-13" value="XML-Generation Engine" style="rounded=1;whiteSpace=wrap;html=1;strokeWidth=3;" parent="usE7sO5X4mrcG4s_s1Hf-56" vertex="1">
          <mxGeometry x="320" y="260" width="120" height="60" as="geometry" />
        </mxCell>
        <mxCell id="mglS8GP5RweYmfvnkdKe-6" value="Analysis Engine" style="rounded=1;whiteSpace=wrap;html=1;strokeWidth=3;" parent="usE7sO5X4mrcG4s_s1Hf-56" vertex="1">
          <mxGeometry x="320" y="160" width="120" height="60" as="geometry" />
        </mxCell>
        <mxCell id="4iZjYgw0V4L9F9DsTNRg-46" value="Engines" style="swimlane;fontSize=14;strokeWidth=3;" vertex="1" parent="usE7sO5X4mrcG4s_s1Hf-56">
          <mxGeometry x="10" y="35" width="480" height="310" as="geometry" />
        </mxCell>
        <mxCell id="usE7sO5X4mrcG4s_s1Hf-20" value="Recommendation Engine" style="rounded=1;whiteSpace=wrap;html=1;strokeWidth=3;" parent="4iZjYgw0V4L9F9DsTNRg-46" vertex="1">
          <mxGeometry x="170" y="125" width="120" height="60" as="geometry" />
        </mxCell>
        <mxCell id="4iZjYgw0V4L9F9DsTNRg-27" style="edgeStyle=elbowEdgeStyle;rounded=0;orthogonalLoop=1;jettySize=auto;elbow=vertical;html=1;entryX=0.5;entryY=0;entryDx=0;entryDy=0;" edge="1" parent="1" source="4iZjYgw0V4L9F9DsTNRg-2" target="4iZjYgw0V4L9F9DsTNRg-3">
          <mxGeometry relative="1" as="geometry" />
        </mxCell>
        <mxCell id="4iZjYgw0V4L9F9DsTNRg-29" style="edgeStyle=elbowEdgeStyle;rounded=0;orthogonalLoop=1;jettySize=auto;elbow=vertical;html=1;" edge="1" parent="1" source="4iZjYgw0V4L9F9DsTNRg-2">
          <mxGeometry relative="1" as="geometry">
            <mxPoint x="-4.547473508864641e-13" y="379.9999999999998" as="targetPoint" />
          </mxGeometry>
        </mxCell>
        <mxCell id="4iZjYgw0V4L9F9DsTNRg-2" value="APIM" style="rounded=1;whiteSpace=wrap;html=1;strokeWidth=3;" vertex="1" parent="1">
          <mxGeometry x="-270" y="350" width="120" height="60" as="geometry" />
        </mxCell>
        <mxCell id="4iZjYgw0V4L9F9DsTNRg-24" style="edgeStyle=elbowEdgeStyle;rounded=0;orthogonalLoop=1;jettySize=auto;elbow=vertical;html=1;" edge="1" parent="1" source="4iZjYgw0V4L9F9DsTNRg-3" target="usE7sO5X4mrcG4s_s1Hf-3">
          <mxGeometry relative="1" as="geometry" />
        </mxCell>
        <mxCell id="4iZjYgw0V4L9F9DsTNRg-3" value="AM" style="rounded=1;whiteSpace=wrap;html=1;strokeWidth=3;" vertex="1" parent="1">
          <mxGeometry x="-270" y="630" width="120" height="60" as="geometry" />
        </mxCell>
        <mxCell id="4iZjYgw0V4L9F9DsTNRg-6" value="http-request" style="text;html=1;strokeColor=none;fillColor=none;align=center;verticalAlign=middle;whiteSpace=wrap;rounded=0;fontSize=14;" vertex="1" parent="1">
          <mxGeometry x="-400" y="460" width="140" height="20" as="geometry" />
        </mxCell>
        <mxCell id="4iZjYgw0V4L9F9DsTNRg-25" value="Authentication" style="text;html=1;strokeColor=none;fillColor=none;align=center;verticalAlign=middle;whiteSpace=wrap;rounded=0;fontSize=14;" vertex="1" parent="1">
          <mxGeometry x="-425" y="520" width="115" height="40" as="geometry" />
        </mxCell>
        <mxCell id="4iZjYgw0V4L9F9DsTNRg-26" value="token" style="text;html=1;strokeColor=none;fillColor=none;align=center;verticalAlign=middle;whiteSpace=wrap;rounded=0;fontSize=14;" vertex="1" parent="1">
          <mxGeometry x="-430" y="550" width="100" height="50" as="geometry" />
        </mxCell>
        <mxCell id="4iZjYgw0V4L9F9DsTNRg-28" value="Authorization" style="text;html=1;strokeColor=none;fillColor=none;align=center;verticalAlign=middle;whiteSpace=wrap;rounded=0;fontSize=14;" vertex="1" parent="1">
          <mxGeometry x="-200" y="500" width="100" height="20" as="geometry" />
        </mxCell>
        <mxCell id="4iZjYgw0V4L9F9DsTNRg-31" value="http-request" style="text;html=1;strokeColor=none;fillColor=none;align=center;verticalAlign=middle;whiteSpace=wrap;rounded=0;fontSize=14;" vertex="1" parent="1">
          <mxGeometry x="-140" y="360" width="110" height="20" as="geometry" />
        </mxCell>
        <mxCell id="4iZjYgw0V4L9F9DsTNRg-48" style="edgeStyle=elbowEdgeStyle;rounded=0;orthogonalLoop=1;jettySize=auto;elbow=vertical;html=1;fontSize=14;" edge="1" parent="1" source="4iZjYgw0V4L9F9DsTNRg-41">
          <mxGeometry relative="1" as="geometry">
            <mxPoint x="529.9999999999995" y="509.9999999999998" as="targetPoint" />
          </mxGeometry>
        </mxCell>
        <mxCell id="4iZjYgw0V4L9F9DsTNRg-41" value="Buddi MLP" style="rounded=1;whiteSpace=wrap;html=1;fontSize=14;strokeWidth=3;" vertex="1" parent="1">
          <mxGeometry x="650" y="480" width="120" height="60" as="geometry" />
        </mxCell>
        <mxCell id="4iZjYgw0V4L9F9DsTNRg-50" style="edgeStyle=elbowEdgeStyle;rounded=0;orthogonalLoop=1;jettySize=auto;elbow=vertical;html=1;entryX=0.5;entryY=1;entryDx=0;entryDy=0;fontSize=14;" edge="1" parent="1" source="4iZjYgw0V4L9F9DsTNRg-49" target="usE7sO5X4mrcG4s_s1Hf-56">
          <mxGeometry relative="1" as="geometry" />
        </mxCell>
        <mxCell id="4iZjYgw0V4L9F9DsTNRg-49" value="DataBase" style="shape=datastore;whiteSpace=wrap;html=1;fontSize=14;strokeWidth=3;" vertex="1" parent="1">
          <mxGeometry x="195" y="810" width="140" height="110" as="geometry" />
        </mxCell>
      </root>
    </mxGraphModel>
  </diagram>
</mxfile>
